<svg width="14" height="15" fill="none" xmlns="http://www.w3.org/2000/svg"><path d="M11.6667 2.25c0-.32216-.2612-.58332-.5833-.58332H9.33335V.5H8.16668v1.16668h-1.75V.5H5.25v1.16668H3.5V.5H2.33332v1.16668H.583324C.26116 1.66668 0 1.92784 0 2.25v1.16668h11.6667V2.25zM9.32291 7.08867c.38185-.11457.77849-.17251 1.17709-.17202.3952.00035.7882.05832 1.1667.17207V4H0v7.5833c0 .3222.26116.5833.583324.5833H6.58875c-.64723-2.1572.5769-4.43068 2.73416-5.07793zM8.16668 5.16668h1.16667v1.16667H8.16668V5.16668zm-2.91668 0h1.16668v1.16667H5.25V5.16668zM3.5 11H2.33332V9.83332H3.5V11zm0-2.33332H2.33332V7.5H3.5v1.16668zm0-2.33336H2.33332V5.16665H3.5v1.16667zM5.25 7.5h1.16668v1.16668H5.25V7.5z" fill="#FFBD54"/><path d="M10.5 7.5C8.56702 7.5 7 9.06702 7 11c0 1.933 1.56702 3.5 3.5 3.5 1.933 0 3.5-1.567 3.5-3.5-.0022-1.93205-1.5679-3.49776-3.5-3.5zm.4124 3.9124c-.1566.1554-.3871.2099-.5967.1412l-1.75002-.5833.36925-1.10835 1.40757.46665 1.4951-1.49505.8248.82483-1.75 1.75402z" fill="#FFBD54"/></svg>