<svg width="21" height="22" fill="none" xmlns="http://www.w3.org/2000/svg"><path d="M6.70074 13.3186c-.30022.6154-.42781 1.1307-.43598 1.1644-.04438.1832.03504.3726.19402.4702.08702.0534 2.1511 1.2997 3.86492.5924.1371-.0566.2709-.1186.4009-.1854-1.46149-.3647-2.83121-1.1309-4.02386-2.0416zM6.73891 7.74815c.00332.00263.15169.12276.3482.31621 1.59666-1.13727 3.47139-1.98484 5.43239-1.98482.4327-.00008.8689.02594 1.307.0773-.2244-.4034-.5978-.8244-1.1983-1.22468-1.1781-.7854-2.69847-.18782-3.89318.56441-1.12835.71044-1.99507 1.57235-2.0314 1.60868-.18082.18082-.16633.4804.03529.6429zM5.51278 12.3129c-.1822-.171-.44375-.4273-.61085-.6141-.44119-.493-.44123-1.2365.00045-1.73003.11435-.12755.34305-.36281.61036-.61362-.46899-.35504-1.04487-.90154-1.58738-1.71537-.15106-.22645-.47218-.25897-.66528-.06587-.64498.64497-.9998 1.42239-.97352 2.13285.02772.74824.02774 1.50684.00002 2.25454-.0263.7105.32852 1.4879.9735 2.1328.19277.1928.5141.161.66526-.0659.54255-.8137 1.11845-1.3603 1.58744-1.7153z" fill="#78C0DE"/><path d="M15.3494 14.0807c-1.3082-1.5047-1.3109-4.97777-.0036-6.4894.0151-.01746.0057-.0073.2036-.20518-1.0167-.29333-2.0346-.44226-3.0298-.44208-2.2132-.00004-4.37718 1.25113-6.02864 2.6917-.41385.3612-.77344.71876-.94492.91006-.14687.1641-.14687.4124.00002.5765.36796.4114 1.13081 1.1168 1.95157 1.7122 1.25492.9093 2.70427 1.6427 4.23507 1.8382.0069-.0062.276.0449.8158.0511.982-.0028 1.9953-.1491 2.9825-.4334l-.1816-.2097z" fill="#78C0DE"/><path d="M19.8426 11.81c.2041-.2573.388-.589.412-.9196.0538-.7264-.754-1.47017-1.3408-1.90287-.729-.53763-1.6059-.9792-2.4467-1.29651l-.477.47702c-1.0161 1.19492-1.0085 4.17206.0121 5.34606l.4188.4832c1.164-.4336 2.6582-1.2121 3.4216-2.1873zm-3.1402-1.3395c-.0689-.219.0524-.4672.2877-.5387.2229-.07408.4942.0626.5493.3289.0221.1078.0012.2242-.0644.3244-.2114.3087-.6699.2259-.7726-.1146z" fill="#78C0DE"/></svg>