<svg width="14" height="13" fill="none" xmlns="http://www.w3.org/2000/svg"><path d="M13.7103 6.39349L7.3493.142369C7.3035.0972385 7.2491.0614337 7.18921.0370042 7.12932.0125746 7.06512 0 7.00029 0c-.06484 0-.12903.0125746-.18892.0370042-.05989.0244295-.11429.0602343-.16009.1053648L.290327 6.39349C.105012 6.57574 0 6.8233 0 7.08148c0 .53611.443213.97199.988349.97199h.670221V12.514c0 .2688.22084.486.49418.486h3.85919V9.59803h1.72961V13h4.10625c.2734 0 .4942-.2172.4942-.486V8.05347h.6702c.2626 0 .5143-.10175.6996-.28552.3845-.37968.3845-.99477-.0015-1.37446z" fill="#FFBD54"/></svg>