<svg width="178" height="87" fill="none" xmlns="http://www.w3.org/2000/svg"><path d="M10.95 37.8814L0 32.8363l11.8544-5.4746c.3361-16.3779 16.1595-19.92829 22.7219-19.29272 6.5624.6363 25.6535 12.34532 17.961 36.26232-2.6212 8.1506-2.0024 29.239 28.5858 27.2914-2.2975 4.3299-13.0817 22.2894-48.1818 10.8645C23.2099 79.3196 9.34357 63.6387 10.95 37.8814z" fill="#FFBD54"/><path d="M110.818 32.7034c.96-11.6009-5.053-22.1163-8.576-24.53874-3.2875-2.25955-3.2992 7.49534-6.2265 12.84574-4.3459-1.811-9.1609-2.8279-14.2352-2.8279-5.0648 0-9.8717 1.0125-14.2104 2.8177-2.9221-5.3534-2.9367-15.09509-6.2212-12.837-3.5198 2.4122-9.5211 12.921-8.5773 24.4993-3.6227 5.0816-5.7369 11.1669-5.7369 17.7133 0 17.7805 15.5568 30.9674 34.7451 30.9674 19.1894 0 34.7454-13.1869 34.7454-30.9674 0-6.5288-2.104-12.5989-5.707-17.6724z" fill="#78C0DE"/><path d="M109.119 52.411c.898-15.9169 6.977-18.1173 7.775-27.8509C118 11.0817 127.285 1.28155 131.872.0747093 136.459-1.12921 130.608 12.5493 134.719 17.1919c8.6-2.9813 14.061-.4427 18.374 4.2232 4.316 4.6674-1.317 9.1244 7.13 7.9293 3.475-.4931 7.087-.377 10.11.393.286-.1892.595-.3507.931-.4668 2.378-.8233 5.052.6619 5.975 3.3217.348 1.0074.393 2.0382.188 2.9762.105.5136.149 1.0586.116 1.6379-.466 8.182-10.549 19.4513-16.813 20.2724-6.264.8226-12.915-.2594-13.085 12.2737-.225 16.6928-37.176 23.299-46.227 6.352 6.624-4.7916 7.016-11.5373 7.701-23.6935z" fill="#000"/><path d="M136.872 22.1398c4.325.3821 7.761-1.9154 11.106-4.4913-1.345-.1658-2.831-.1761-4.498.0139-2.507-4.5308 4.754-14.6166.794-14.47049-3.569.12711-12.703 5.01806-16.914 13.88309 3.056 2.0536 5.488 5.2825 9.512 5.0648z" fill="#000"/><path d="M38.1417 34.4355c-.5165-.1549-1.0491-.1965-1.5787-.1206-1.5466.2207-2.8535 1.4333-3.2443 2.9996l-3.4693 12.9619-6.9182-11.4979c-.8679-1.3836-2.4743-2.1675-3.9997-1.9498-.5202.0745-1.0008.2586-1.4297.5494-.9709.599-1.64 1.5012-1.8862 2.5444-.2367.9921-.0585 2.0273.4843 2.8922l11.7025 19.6478c.084.1695.2148.4149.4427.6144.0796.0891.1717.1621.2754.2206 0 .0015 0 .0015.0007.0022l.1038.149.1439.1089c.0519.0394.111.0811.1782.1183l.0278.1943.4939.1651.1512.1125 1.1199.2419.3331.0628.1666-.0241c.2849.0146.496-.0154.618-.0322.1666-.0234.3843-.0548.6538-.1497l.2521-.0358.206-.1418 1.0052-.6457.206-.2747c.0599-.0665.1468-.1622.236-.2996.0701-.0818.13-.1724.1746-.271.0299-.0475.0606-.0964.0891-.1468.0058-.0095.0117-.0183.0168-.0278.0979-.1052.1761-.2272.2316-.3594.0993-.1863.1797-.4076.225-.6188l5.8479-22.1352c.2864-1.0074.1673-2.0514-.3353-2.9382-.5325-.9417-1.4392-1.6255-2.5247-1.9162zM81.5787 34.2806c-9.318.1629-16.8199 8.1031-16.722 17.7192.2396 9.6876 7.8475 17.2019 17.3203 17.1055h.0102c4.986-.0877 9.0214-1.6613 12.3308-4.8106.8057-.7612 1.2455-1.7299 1.2704-2.8002.0336-1.3748-.6276-2.5795-1.269-3.2611-.6903-.7911-1.9023-1.2485-3.256-1.2251-1.3595.0241-2.6146.5333-3.4656 1.4012-1.0922.8197-2.9923 1.3668-4.8764 1.4004-.2659.0044-.5289-.0022-.7809-.0182-1.9674-.1337-4.2021-1.1192-5.311-2.3436l-.0899-.0906c-.5048-.4609-.9533-1.1148-1.3047-1.8891l18.5922-.3244c2.4217-.0424 4.2889-1.5473 4.5957-3.6812.0724-.2681.0855-.561.0797-.8985l-.0095-.4011c-.7189-9.364-7.9168-16.0433-17.1143-15.8826zm7.64 12.7844l-14.1768.2476c.9701-1.9191 3.1164-3.9668 6.6683-4.2268 3.6403.2564 6.2256 2.1448 7.5085 3.9792zM138.074 49.6825c2.535.2644 4.897-1.6247 5.158-4.1253.264-2.546-1.616-4.834-4.194-5.1028l-.242-.0256.785-7.5289c.27-2.5876-1.545-4.8259-4.132-5.0962-2.622-.274-4.887 1.5392-5.157 4.126l-.787 7.5282-.485-.0504c-2.588-.2696-4.827 1.5451-5.097 4.1334-.265 2.5437 1.588 4.8295 4.133 5.0962l.485.0504-1.635 15.6642c-.463 4.4182 2.757 8.3894 7.177 8.8511 2.587.2703 4.825-1.5436 5.097-4.1326.227-2.1726-.979-4.0991-2.87-4.85l1.52-14.564.244.0263z" fill="#fff"/></svg>