<svg width="22" height="21" fill="none" xmlns="http://www.w3.org/2000/svg"><path d="M14.5067 11.1393v.0798l.0778.0177c.7218.1645 1.2503.768 1.2503 1.476 0 .174-.1411.3151-.315.3151-.174 0-.315-.1411-.315-.3151 0-.504-.4684-.8902-1.0131-.8902-.5446 0-1.013.3862-1.013.8902 0 .5041.4684.8903 1.013.8903.9129 0 1.6431.6888 1.6431 1.5203 0 .7081-.5285 1.3115-1.2503 1.476l-.0778.0178v.259c0 .174-.141.315-.315.315-.1739 0-.315-.141-.315-.315v-.259l-.0778-.0178c-.7218-.1645-1.2503-.7679-1.2503-1.476 0-.174.1411-.315.3151-.315.1739 0 .315.141.315.315 0 .5041.4684.8903 1.013.8903.5447 0 1.0131-.3862 1.0131-.8903s-.4684-.8903-1.0131-.8903c-.9129 0-1.6431-.6888-1.6431-1.5203 0-.708.5285-1.3115 1.2503-1.476l.0778-.0177v-.2957c0-.1739.1411-.315.315-.315.174 0 .315.1411.315.315v.2159zM16.4852 9.16967v.00001c.8861.42598 1.6358 1.08942 2.168 1.91862.5467.8519.8357 1.8395.8357 2.8563 0 .8658-.2137 1.7249-.6177 2.4841l.0883.0469-.0883-.0469c-.0566.1063-.1655.1671-.2785.1671-.0497 0-.1003-.0118-.1475-.037h0c-.1536-.0817-.2119-.2725-.1302-.4261h0c.3559-.6688.5438-1.4253.5438-2.1881 0-1.7831-1.0386-3.4341-2.6466-4.20711-.1568-.07538-.2228-.26357-.1474-.42039v-.00001c.0753-.1568.2635-.22284.4204-.14742zM14.8163 9.27948h-.0001c-.174 0-.315-.14104-.315-.31502 0-.17398.141-.31502.315-.31502l.0276.00004c.1738.0009.3141.14255.3134.3165-.0008.17348-.1417.31354-.315.31354h0-.0001 0-.0001 0-.0001 0-.0001 0-.0001 0-.0001 0-.0001 0-.0001 0-.0001 0-.0001 0-.0001 0-.0001 0-.0001 0-.0001 0-.0001 0-.0001 0-.0001 0-.0001 0-.0001 0-.0001 0l-.0239-.00004zM10.0723 11.7567h0c-.35578.6688-.54377 1.4253-.54377 2.1881 0 1.783 1.03867 3.4341 2.64657 4.2071l.0434-.0901-.0434.0901c.1568.0754.2228.2636.1475.4204-.0542.1127-.1667.1786-.2842.1786-.0457 0-.0921-.0099-.1362-.0311h0c-.8862-.4261-1.6359-1.0895-2.16801-1.9187-.54669-.8519-.8357-1.8395-.8357-2.8563 0-.8658.21366-1.7248.61766-2.4841h.00001c.08167-.1536.27251-.2118.42604-.1301h.00002c.15358.0817.21188.2725.13008.4261zM13.5709 18.61v0h.0003c.1739 0 .315.141.315.315 0 .1739-.1411.315-.315.315l-.0273-.0001h-.0001c-.1739-.0008-.3143-.1425-.3135-.3165h0c.0008-.1739.1413-.3138.3167-.3135l.0239.0001z" fill="#fff" stroke="#fff" stroke-width="0.2"/><path d="M15.986 7.18399l.0188.0447.0467.01297c2.9362.81483 5.0975 3.51134 5.0975 6.70304 0 3.8351-3.1202 6.9553-6.9553 6.9553-2.0021 0-3.809-.8506-5.07946-2.2094l-.02965-.0317h-4.9344c-.99743 0-1.80909-.8117-1.80909-1.8091 0-.5727.26775-1.0839.68502-1.4158l.09836-.0783-.09836-.0783c-.41727-.3319-.68502-.8431-.68502-1.4158 0-.5726.26775-1.0838.68502-1.4158l.09836-.0782-.09836-.0783c-.41727-.332-.68502-.8432-.68502-1.4158s.26775-1.08385.68502-1.41582l.09836-.07825-.09836-.07826C2.60885 8.9692 2.3411 8.458 2.3411 7.88536c0-.99743.81166-1.80909 1.80909-1.80909h1.27254l-.10778-.15667c-.20029-.29115-.31773-.64316-.31773-1.02238 0-.37921.11748-.73122.31773-1.02238l.10776-.15667H1.90909C.911662 3.71817.1 2.90651.1 1.90909.1.911662.911662.1 1.90909.1H12.0771c.9974 0 1.809.811662 1.809 1.80909 0 .37921-.1174.73122-.3177 1.02238l-.1077.15667H16.9743c.9974 0 1.8091.81166 1.8091 1.80908 0 .99743-.8117 1.80909-1.8091 1.80909h-1.2701l.1071.15648c.0682.09959.1268.20706.1747.3212zm-1.2054-.16963l.052-.18964c-.1567-.07592-.3317-.11841-.5144-.11841H4.15019c-.6502 0-1.17905.52885-1.17905 1.17905 0 .6502.52885 1.17905 1.17905 1.17905h5.09236l.0293-.02938c1.26005-1.26319 3.00125-2.04567 4.92185-2.04567.1976 0 .3932.00875.5869.025zM8.57268 9.8534l.11602-.15895H4.15019c-.65024 0-1.17905.52885-1.17905 1.17905 0 .6502.52881 1.179 1.17905 1.179h3.34977l.02114-.0717c.22802-.7733.58709-1.491 1.05158-2.1274zM7.33325 12.799l.01938-.1164H4.15019c-.65024 0-1.17905.5288-1.17905 1.179 0 .6503.52881 1.1791 1.17905 1.1791H7.3242l-.01619-.1141c-.04555-.3209-.06964-.6487-.06964-.9819 0-.3902.03281-.7728.09488-1.1457zm.14179 2.9458l-.01987-.0741H4.15019c-.65024 0-1.17905.5288-1.17905 1.1791 0 .6502.52881 1.179 1.17905 1.179H8.56419l-.10754-.1566c-.43985-.6405-.77519-1.3578-.98161-2.1274zM18.1533 4.89722c0-.65019-.5288-1.17905-1.179-1.17905H6.80631c-.65024 0-1.17905.52886-1.17905 1.17905 0 .6502.52881 1.17905 1.17905 1.17905H16.9743c.6502 0 1.179-.52885 1.179-1.17905zM.730038 1.90909c0 .65019.528802 1.17905 1.179052 1.17905H12.0771c.6502 0 1.179-.52886 1.179-1.17905 0-.6502-.5288-1.179052-1.179-1.179052H1.90909c-.65025 0-1.179052.528852-1.179052 1.179052zM7.86841 13.9447c0 3.4878 2.83739 6.3253 6.32529 6.3253 3.4878 0 6.3253-2.8375 6.3253-6.3253 0-3.4879-2.8375-6.32531-6.3253-6.32531-3.4879 0-6.32529 2.83741-6.32529 6.32531z" fill="#fff" stroke="#fff" stroke-width="0.2"/></svg>