<svg width="28" height="27" fill="none" xmlns="http://www.w3.org/2000/svg"><path d="M23.5767 17.0502c-2.1973-3.2129-4.5665-6.7384-10.1054-5.2543-2.4688.6616-4.11208 1.9347-5.02361 3.8924-.80741 1.734-.95252 3.7708-1.10074 5.7107-.18385 2.378 2.2885 4.0674 4.44675 3.0206 1.7706-.8592 4.1724-2.1511 8.0257-2.4282 1.485-.1068 1.6278-.0988 2.0117-.2017 2.0059-.5375 2.9764-2.9433 1.7456-4.7395z" fill="#FBDD7B"/><path d="M21.8312 21.7897c2.0058-.5375 2.9763-2.9434 1.7455-4.7395-2.1973-3.2129-4.5665-6.7384-10.1054-5.2543l2.8876 10.7766c2.7744-.7434 4.5693-.5408 5.4723-.7828z" fill="#FECB3E"/><path d="M16.5662 16.4037l-1.0848.2906-.2906-1.0847c-.0963-.3595-.4658-.5728-.8253-.4765-.3594.0963-.5728.4658-.4765.8253l.2907 1.0847-1.0848.2907c-.3594.0963-.5728.4658-.4764.8253.0963.3594.4658.5728.8252.4764l1.0848-.2906.2907 1.0848c.0963.3594.4658.5727.8252.4764.3595-.0963.5728-.4658.4765-.8252l-.2907-1.0848 1.0848-.2907c.3595-.0963.5728-.4658.4765-.8253-.0963-.3594-.4658-.5727-.8253-.4764z" fill="#FFF8E0"/><path d="M16.1209 19.0809l-.2907-1.0848 1.0848-.2907c.3595-.0963.5728-.4658.4765-.8253-.0963-.3594-.4658-.5727-.8253-.4764l-1.0848.2906-.2906-1.0847c-.0963-.3595-.4658-.5728-.8253-.4765l1.2789 4.773c.3595-.0963.5728-.4658.4765-.8252z" fill="#FFE799"/><path d="M21.2765 6.21228c-1.3159.3526-2.0997 1.71006-1.7471 3.02598.3527 1.31594 1.7101 2.09964 3.026 1.74704 1.316-.3526 2.1431-1.72167 1.7905-3.0376-.3526-1.31592-1.7535-2.08802-3.0694-1.73542zM16.4203 8.91634c1.5118-.4051 2.3253-2.2714 1.817-4.16851-.5084-1.89711-2.146-3.10663-3.6579-2.70153-1.5118.40509-2.3253 2.2714-1.817 4.16851.5084 1.89711 2.146 3.10662 3.6579 2.70153z" fill="#FECB3E"/><path d="M9.47767 10.7766c1.51183-.4051 2.32533-2.2714 1.81703-4.16851-.5083-1.89711-2.14601-3.10663-3.65785-2.70153-1.51184.40509-2.32534 2.2714-1.81701 4.16851.50833 1.89711 2.146 3.10663 3.65783 2.70153zM3.92002 10.8629c-1.31593.3526-2.14304 1.7217-1.79044 3.0377.3526 1.3159 1.75344 2.088 3.06937 1.7354 1.31592-.3526 2.09965-1.7101 1.74705-3.026-.3526-1.3159-1.71006-2.0997-3.02598-1.7471z" fill="#FBDD7B"/></svg>