<svg width="51" height="42" fill="none" xmlns="http://www.w3.org/2000/svg"><path d="M.462503 8.59999L5.4625 1.8c2-.800008 3.93333-1.200011 5.8-1.200011 1.0667 0 2.2667.200002 3.6.600001 1.2.53334 2.3333 1.2 3.4 2 1.0667.93334 2 2.06667 2.8 3.40001.6667 1.33333 1 2.86666 1 4.6 0 2-.2 4.0667-.6 6.2-.4 2.1333-1.1333 4.4667-2.2 7-1.2 2.5333-2.8 5.2-4.8 8-2.1333 2.8-4.86667 5.8667-8.2 9.2h-1c-.40001.1333-.73334.2-1 .2-2.26667 0-3.533337-1-3.8-3 .133332-.5333.533331-1.3333 1.2-2.4.53333-1.0667 1.2-2.1333 2-3.2.66666-1.0667 1.33333-2.0667 1.99999-3 .53334-.8.86667-1.2667 1-1.4 1.46667-2.6667 2.46668-5.6667 3.00001-9h-1c-.8 0-1.6-.1333-2.4-.4-.93334-.1333-1.80001-.6-2.6-1.4-.8-.8-1.46667-1.9333-2-3.4C.995833 13.1333.595834 11.1333.462503 8.59999zm27.999997 0l5-6.79999c2-.800006 3.9333-1.200009 5.8-1.200008 1.0667 0 2.2667.200001 3.6.600008 1.2.53333 2.3333 1.2 3.4 1.99999 1.0667.93334 2 2.06668 2.8 3.40001.6667 1.33333 1 2.86666 1 4.6 0 2-.2 4.0667-.6 6.2-.4 2.1333-1.1333 4.4667-2.2 7-1.2 2.5333-2.8 5.2-4.8 8-2.1333 2.8-4.8667 5.8667-8.2 9.2h-1c-.4.1333-.7333.2-1 .2-2.2667 0-3.5333-1-3.8-3 .1333-.5333.5333-1.3333 1.2-2.4.5333-1.0667 1.2-2.1333 2-3.2.6667-1.0667 1.3333-2.0667 2-3 .5333-.8.8667-1.2667 1-1.4 1.4667-2.6667 2.4667-5.6667 3-9h-1c-.8 0-1.6-.1333-2.4-.4-.9333-.1333-1.8-.6-2.6-1.4-.8-.8-1.4667-1.9333-2-3.4-.6667-1.4667-1.0667-3.4667-1.2-6.00001z" fill="#DBDBDB"/></svg>