<svg width="50" height="42" fill="none" xmlns="http://www.w3.org/2000/svg"><path d="M49.6 33.4l-5 6.8c-2 .8-3.9333 1.2-5.8 1.2-1.0667 0-2.2667-.2-3.6-.6-1.2-.5333-2.3333-1.2-3.4-2-1.0667-.9333-2-2.0667-2.8-3.4-.6667-1.3333-1-2.8667-1-4.6 0-2 .2-4.0667.6-6.2.4-2.1333 1.1333-4.4667 2.2-7 1.2-2.5333 2.8-5.2 4.8-8.00001C37.7333 6.8 40.4667 3.73333 43.8.399991h1c.4-.133332.7333-.199997 1-.199997 2.2667 0 3.5333.999996 3.8 2.999996-.1333.53334-.5333 1.33334-1.2 2.40001-.5333 1.06666-1.2 2.13333-2 3.19999-.6667 1.06667-1.3333 2.06671-2 3.00001-.5333.8-.8667 1.2667-1 1.4-1.4667 2.6667-2.4667 5.6667-3 9h1c.8 0 1.6.1333 2.4.4.9333.1333 1.8.6 2.6 1.4.8.8 1.4667 1.9333 2 3.4.6667 1.4667 1.0667 3.4667 1.2 6zm-28 0l-5 6.8c-2 .8-3.9333 1.2-5.8 1.2-1.06666 0-2.26666-.2-3.59999-.6-1.2-.5333-2.33334-1.2-3.40001-2-1.06666-.9333-2-2.0667-2.8-3.4-.666663-1.3333-.99999642-2.8667-.99999642-4.6 0-2 .19999942-4.0667.59999842-6.2C1 22.4667 1.73334 20.1333 2.8 17.6c1.2-2.5333 2.8-5.2 4.80001-8.00001C9.73334 6.8 12.4667 3.73333 15.8.399991h1c.4-.133332.7333-.199997 1-.199997 2.2667 0 3.5333.999996 3.8 2.999996-.1333.53334-.5333 1.33334-1.2 2.40001-.5333 1.06666-1.2 2.13333-2 3.19999-.6667 1.06667-1.3333 2.06671-2 3.00001-.5333.8-.8667 1.2667-1 1.4-1.4667 2.6667-2.4667 5.6667-3 9h1c.8 0 1.6.1333 2.4.4.9333.1333 1.8.6 2.6 1.4.8.8 1.4667 1.9333 2 3.4.6667 1.4667 1.0667 3.4667 1.2 6z" fill="#DBDBDB"/></svg>