<svg width="13" height="13" fill="none" xmlns="http://www.w3.org/2000/svg"><path d="M12.7612 10.1832L9.79479 7.48612c-.14023-.12744-.32449-.19541-.51388-.18956-.1894.00586-.36911.08508-.50119.22094L7.03345 9.31338c-.42033-.08027-1.26537-.3437-2.13522-1.21136-.86986-.87057-1.13329-1.71779-1.21137-2.1352l1.79443-1.74699c.13603-.13199.21537-.31173.22123-.50118.00585-.18945-.06223-.37374-.18985-.51388L2.81628.239128C2.6886.0985498 2.51116.0132785 2.32162.00142429 2.13209-.0104299 1.9454.0520669 1.80121.175641L.217669 1.53368c-.1261645.12662-.2014676.29514-.21162531.4736C-.00490243 2.18971-.213608 6.5112 3.13736 9.8636 6.0607 12.7862 9.72254 13 10.731 13c.1475 0 .2379-.0044.262-.0058.1785-.01.3469-.0857.4729-.2124l1.3573-1.5842c.1241-.1438.187-.3303.1754-.5198-.0115-.1896-.0968-.367-.2374-.4946z" fill="#FFBD54"/></svg>